<svg xmlns="http://www.w3.org/2000/svg" xmlns:svg="http://www.w3.org/2000/svg" id="svg3418" width="741.58" height="647.8" version="1.1"><defs id="defs3420"><filter id="filter3801" width="3.781" height="1.024" x="-1.391" y="-.012" color-interpolation-filters="sRGB"><feGaussianBlur id="feGaussianBlur3803" stdDeviation="3.068"/></filter><filter id="filter3845" color-interpolation-filters="sRGB"><feGaussianBlur id="feGaussianBlur3847" stdDeviation="1.442"/></filter><filter id="filter3885" color-interpolation-filters="sRGB"><feGaussianBlur id="feGaussianBlur3887" stdDeviation="7.195"/></filter><filter id="filter3971" color-interpolation-filters="sRGB"><feGaussianBlur id="feGaussianBlur3973" stdDeviation="3.354"/></filter><linearGradient id="linearGradient3861" x1="298.066" x2="299.351" y1="648.486" y2="34.11" gradientTransform="matrix(1.1487322,0,0,0.98106317,-7.1308527,-19.107212)" gradientUnits="userSpaceOnUse"><stop id="stop3855" offset="0" stop-color="#00f" stop-opacity="0"/><stop id="stop3863" offset=".5" stop-color="#00f"/><stop id="stop3857" offset="1" stop-color="#00f" stop-opacity="0"/></linearGradient><linearGradient id="linearGradient3883" x1="-158.843" x2="453.963" y1="-181.547" y2="724.569" gradientTransform="scale(1.2929622,0.77341781)" gradientUnits="userSpaceOnUse"><stop id="stop3879" offset="0" stop-color="#fff"/><stop id="stop3881" offset="1" stop-color="#fff" stop-opacity="0"/></linearGradient><linearGradient id="linearGradient3969" x1="330.122" x2="330.112" y1="1.996" y2="671.523" gradientTransform="matrix(1.116275,0,0,0.9686049,-11.271439,-3.6287869)" gradientUnits="userSpaceOnUse"><stop id="stop3779" offset="0" stop-color="#999"/><stop id="stop3791" offset=".019" stop-color="#f0f0f0"/><stop id="stop3789" offset=".034" stop-color="#c8c8c8"/><stop id="stop3785" offset=".956" stop-color="#787878"/><stop id="stop3787" offset=".975" stop-color="#505050"/><stop id="stop3793" offset=".987" stop-color="#787878"/><stop id="stop3781" offset="1" stop-color="#999"/></linearGradient></defs><metadata id="metadata3445">image/svg+xmlOpenclipartmonitoring2011-02-16T19:15:54Iconos para monitoreo de proyectoshttps://openclipart.org/detail/119695/monitoring-by-jabernaljabernalbúsquedamonitoreomonitoringprojectproyectosearch</metadata><g id="g3486" transform="matrix(0.99402309,0,0,1.0000993,11.793863,1.8304456)"><rect id="rect3775" width="746.984" height="648.033" x="-11.271" y="-1.177" fill="url(#linearGradient3969)" stroke="#000" stroke-width="1.04"/><rect id="rect3795" width="5.294" height="608.23" x="5.199" y="10.39" fill="#fff" filter="url(#filter3801)" opacity=".665" transform="matrix(0.78047197,0,0,1.0144698,-11.836302,-3.5574412)"/><rect id="rect3805" width="5.294" height="608.23" x="5.199" y="10.39" fill="#fff" filter="url(#filter3801)" opacity=".665" transform="matrix(0.78047197,0,0,1.0144698,721.46311,-3.5574412)"/><rect id="rect3808" width="625.08" height="528.92" x="40.86" y="55.721" fill="navy" filter="url(#filter3845)" transform="matrix(1.0416153,0,0,1.0380314,-3.3714392,-14.16212)"/><path id="path3851" fill="url(#linearGradient3861)" d="m 46.321407,38.268945 0,550.645675 644.754013,0 0,-550.645675 -644.754013,0 z"/><path id="path3875" fill="url(#linearGradient3883)" d="M 70.688004,59.25 A 14.424,14.424 0 0 0 56.25,73.688004 l 0,329.719986 A 14.424,14.424 0 0 0 69.969002,417.814 C 160.78401,422.2721 260.569,398.237 351.659,314.15399 445.19702,227.81101 548.45898,198.834 642.409,196.84399 A 14.424,14.424 0 0 0 656.534,182.438 l 0,-108.749997 A 14.424,14.424 0 0 0 642.08398,59.248001 l -571.409953,0 0.01398,0.002 z" filter="url(#filter3885)" opacity=".608" transform="matrix(1.0682026,0,0,1.0577941,-1.5888079,2.935117)"/></g></svg>